<?xml version="1.0" standalone="no"?>
<!DOCTYPE svg PUBLIC "-//W3C//DTD SVG 20010904//EN"
 "http://www.w3.org/TR/2001/REC-SVG-20010904/DTD/svg10.dtd">
<svg version="1.0" xmlns="http://www.w3.org/2000/svg"
 width="2000.000000pt" height="2000.000000pt" viewBox="0 0 2000.000000 2000.000000"
 preserveAspectRatio="xMidYMid meet">

<g transform="translate(0.000000,2000.000000) scale(0.100000,-0.100000)"
fill="#000000" stroke="none">
<path d="M3850 19339 c-71 -14 -180 -73 -232 -126 -26 -26 -704 -853 -1507
-1838 l-1461 -1790 0 -5410 c0 -3653 3 -5437 10 -5493 18 -142 68 -273 155
-407 46 -71 3312 -3347 3415 -3426 93 -70 226 -136 338 -167 l97 -27 5460 -2
5460 -3 1790 1461 c985 803 1811 1481 1837 1506 91 90 146 237 134 364 -17
188 -131 338 -311 410 l-60 24 -7100 5 -7100 5 -54 23 c-126 53 -220 147 -273
273 l-23 54 -5 7100 -5 7100 -22 57 c-87 228 -308 353 -543 307z"/>
</g>
</svg>
